<svg id="visual" viewBox="0 0 900 450" width="900" height="450" xmlns="http://www.w3.org/2000/svg" xmlns:xlink="http://www.w3.org/1999/xlink" version="1.1"><rect x="0" y="0" width="900" height="450" fill="#001220"></rect><path d="M0 364L21.5 367.5C43 371 86 378 128.8 374.7C171.7 371.3 214.3 357.7 257.2 358.5C300 359.3 343 374.7 385.8 380.3C428.7 386 471.3 382 514.2 376.3C557 370.7 600 363.3 642.8 365.2C685.7 367 728.3 378 771.2 375C814 372 857 355 878.5 346.5L900 338L900 451L878.5 451C857 451 814 451 771.2 451C728.3 451 685.7 451 642.8 451C600 451 557 451 514.2 451C471.3 451 428.7 451 385.8 451C343 451 300 451 257.2 451C214.3 451 171.7 451 128.8 451C86 451 43 451 21.5 451L0 451Z" fill="#ced0ce"></path><path d="M0 375L21.5 373.7C43 372.3 86 369.7 128.8 373.8C171.7 378 214.3 389 257.2 387.2C300 385.3 343 370.7 385.8 369.5C428.7 368.3 471.3 380.7 514.2 381.8C557 383 600 373 642.8 377.7C685.7 382.3 728.3 401.7 771.2 399.8C814 398 857 375 878.5 363.5L900 352L900 451L878.5 451C857 451 814 451 771.2 451C728.3 451 685.7 451 642.8 451C600 451 557 451 514.2 451C471.3 451 428.7 451 385.8 451C343 451 300 451 257.2 451C214.3 451 171.7 451 128.8 451C86 451 43 451 21.5 451L0 451Z" fill="#e6e7e6"></path><path d="M0 428L21.5 423C43 418 86 408 128.8 406.7C171.7 405.3 214.3 412.7 257.2 417.5C300 422.3 343 424.7 385.8 425.7C428.7 426.7 471.3 426.3 514.2 425.7C557 425 600 424 642.8 425.5C685.7 427 728.3 431 771.2 432.2C814 433.3 857 431.7 878.5 430.8L900 430L900 451L878.5 451C857 451 814 451 771.2 451C728.3 451 685.7 451 642.8 451C600 451 557 451 514.2 451C471.3 451 428.7 451 385.8 451C343 451 300 451 257.2 451C214.3 451 171.7 451 128.8 451C86 451 43 451 21.5 451L0 451Z" fill="#ffffff"></path></svg>