<svg id="visual" viewBox="0 0 900 450" width="900" height="450" xmlns="http://www.w3.org/2000/svg" xmlns:xlink="http://www.w3.org/1999/xlink" version="1.1"><rect x="0" y="0" width="900" height="450" fill="#001220"></rect><path d="M0 84L21.5 80.5C43 77 86 70 128.8 73.3C171.7 76.7 214.3 90.3 257.2 89.5C300 88.7 343 73.3 385.8 67.7C428.7 62 471.3 66 514.2 71.7C557 77.3 600 84.7 642.8 82.8C685.7 81 728.3 70 771.2 73C814 76 857 93 878.5 101.5L900 110L900 0L878.5 0C857 0 814 0 771.2 0C728.3 0 685.7 0 642.8 0C600 0 557 0 514.2 0C471.3 0 428.7 0 385.8 0C343 0 300 0 257.2 0C214.3 0 171.7 0 128.8 0C86 0 43 0 21.5 0L0 0Z" fill="#ced0ce"></path><path d="M0 73L21.5 74.3C43 75.7 86 78.3 128.8 74.2C171.7 70 214.3 59 257.2 60.8C300 62.7 343 77.3 385.8 78.5C428.7 79.7 471.3 67.3 514.2 66.2C557 65 600 75 642.8 70.3C685.7 65.7 728.3 46.3 771.2 48.2C814 50 857 73 878.5 84.5L900 96L900 0L878.5 0C857 0 814 0 771.2 0C728.3 0 685.7 0 642.8 0C600 0 557 0 514.2 0C471.3 0 428.7 0 385.8 0C343 0 300 0 257.2 0C214.3 0 171.7 0 128.8 0C86 0 43 0 21.5 0L0 0Z" fill="#e6e7e6"></path><path d="M0 20L21.5 25C43 30 86 40 128.8 41.3C171.7 42.7 214.3 35.3 257.2 30.5C300 25.7 343 23.3 385.8 22.3C428.7 21.3 471.3 21.7 514.2 22.3C557 23 600 24 642.8 22.5C685.7 21 728.3 17 771.2 15.8C814 14.7 857 16.3 878.5 17.2L900 18L900 0L878.5 0C857 0 814 0 771.2 0C728.3 0 685.7 0 642.8 0C600 0 557 0 514.2 0C471.3 0 428.7 0 385.8 0C343 0 300 0 257.2 0C214.3 0 171.7 0 128.8 0C86 0 43 0 21.5 0L0 0Z" fill="#ffffff"></path></svg>